<?xml version="1.0" encoding="us-ascii" standalone="no"?><svg xmlns="http://www.w3.org/2000/svg" xmlns:xlink="http://www.w3.org/1999/xlink" contentStyleType="text/css" height="946px" preserveAspectRatio="none" style="width:605px;height:946px;background:#FFFFFF;" version="1.1" viewBox="0 0 605 946" width="605px" zoomAndPan="magnify"><defs/><g><text fill="#000000" font-family="sans-serif" font-size="14" font-weight="bold" lengthAdjust="spacing" textLength="218" x="186.8952" y="24.5332">Azure Deployment Architecture</text><!--cluster Local Machine--><g id="cluster_Local Machine"><polygon fill="none" points="155.207,179.1094,165.207,169.1094,411.207,169.1094,411.207,390.1094,401.207,400.1094,155.207,400.1094,155.207,179.1094" style="stroke:#181818;stroke-width:1.0;"/><line style="stroke:#181818;stroke-width:1.0;" x1="401.207" x2="411.207" y1="179.1094" y2="169.1094"/><line style="stroke:#181818;stroke-width:1.0;" x1="155.207" x2="401.207" y1="179.1094" y2="179.1094"/><line style="stroke:#181818;stroke-width:1.0;" x1="401.207" x2="401.207" y1="179.1094" y2="400.1094"/><text fill="#000000" font-family="sans-serif" font-size="14" font-weight="bold" lengthAdjust="spacing" textLength="101" x="228.707" y="196.6426">Local Machine</text></g><!--cluster Microsoft Azure--><g id="cluster_Microsoft Azure"><path d="M40.597,447.8602 C50.5019,430.179 63.3352,427.3113 75.7329,445.4125 C84.9586,427.7836 103.8463,422.9986 114.8648,443.5764 C126.4172,421.7714 142.7175,426.3098 155.0423,442.7653 C165.7745,425.4521 183.5861,423.9761 192.8042,444.285 C201.5625,428.6057 212.1903,427.3643 223.7594,441.3522 C234.5499,419.2233 251.4596,418.7164 264.129,439.5882 C274.8356,420.3575 288.4406,419.3642 300.6258,438.1694 C311.7406,421.8026 325.9855,422.7401 336.9514,438.3387 C350.7541,424.1804 364.638,422.9459 374.3435,442.838 C385.7518,422.2795 402.8055,421.8979 416.5951,440.2524 C427.4764,427.2014 441.5893,426.1047 450.6473,442.3703 C462.2418,426.8042 481.0837,423.418 490.1416,445.0625 C501.3305,428.981 516.8757,427.1042 527.869,445.2779 C539.4076,426.5969 557.4372,429.3005 566.207,448.1094 C567.3574,446.8006 568.3027,446.9323 569.1301,448.4441 C590.9921,459.5332 592.7449,477.0762 571.0245,490.1452 C588.4887,499.528 585.1568,516.6959 569.97,525.0935 C588.4095,537.0672 588.1271,548.7686 573.3072,563.6231 C594.9207,576.9824 593.5009,590.5041 574.196,604.7479 C594.0415,612.9954 598.7904,631.0327 578.7544,643.921 C595.8969,654.9133 592.9123,671.9329 576.217,680.5833 C591.007,694.3739 589.6125,706.8994 573.3604,718.3415 C590.846,729.6539 594.9589,743.2738 576.5182,757.4845 C592.2022,772.0233 587.9941,785.7642 570.466,794.9359 C584.8511,806.7328 584.4176,818.5937 569.1635,829.2662 C587.3785,842.0434 589.9031,860.2254 567.7231,871.6291 C585.0391,889.8071 578.3416,900.7939 559.207,911.1094 C562.4954,909.2488 565.6692,910.7345 565.1459,914.879 C552.8061,934.9724 537.8888,932.1926 527.4022,913.0943 C513.9011,934.7922 500.7532,930.9523 487.533,912.8131 C481.7593,931.4102 466.2273,932.8657 453.9176,919.7388 C440.2567,936.2625 421.9063,939.5501 412.081,915.7584 C399.3751,931.7896 385.5192,934.0007 372.7925,915.7824 C363.8865,936.0767 350.8526,938.8994 336.3547,921.1364 C324.4287,935.8584 312.8034,938.073 301.7107,920.2494 C287.4011,939.1527 272.4293,937.2647 263.1959,915.4481 C254.6077,931.7728 237.9659,934.9373 226.4285,918.7873 C212.8867,938.2559 197.2109,932.5676 187.3244,914.9348 C175.2068,934.3971 161.3025,933.1612 150.9651,913.2891 C141.5222,934.6886 126.9632,933.2363 112.6887,918.3916 C101.3901,930.1282 86.7192,930.788 80.7823,912.6628 C63.4759,935.4508 39.1954,930.505 30.207,904.1094 C34.8307,903.8342 37.7006,905.8103 35.7065,910.897 C18.8125,901.8381 14.6754,883.1479 33.8603,872.3606 C8.8591,864.8814 9.35,843.0381 27.7811,829.4114 C11.8724,818.763 9.4284,805.3063 27.2389,794.1397 C9.1364,783.3353 9.7484,762.6929 28.0317,752.5826 C11.3014,743.8406 10.8009,728.2074 26.1127,717.7024 C8.46,707.4198 8.8521,693.8041 24.1287,681.7066 C6,668.5654 8.4059,655.5468 25.7492,643.9271 C7.6705,631.8693 11.0741,612.9044 30.227,605.1454 C9.578,595.4254 8.4426,575.0248 28.2759,563.4121 C13.3193,551.6144 12.8986,537.9755 31.6978,529.5933 C16.9426,518.9789 16.9522,501.902 32.9781,492.3456 C11.8678,473.9652 12.6897,455.7236 37.207,441.1094 C41.4544,441.8959 42.6892,443.8903 40.597,447.8602 " fill="none" style="stroke:#181818;stroke-width:1.0;"/><text fill="#000000" font-family="sans-serif" font-size="14" font-weight="bold" lengthAdjust="spacing" textLength="111" x="242.707" y="460.6426">Microsoft Azure</text></g><!--cluster Resource Group--><g id="cluster_Resource Group"><polygon fill="none" points="46.207,487.1094,56.207,477.1094,550.207,477.1094,550.207,885.1094,540.207,895.1094,46.207,895.1094,46.207,487.1094" style="stroke:#181818;stroke-width:1.0;"/><line style="stroke:#181818;stroke-width:1.0;" x1="540.207" x2="550.207" y1="487.1094" y2="477.1094"/><line style="stroke:#181818;stroke-width:1.0;" x1="46.207" x2="540.207" y1="487.1094" y2="487.1094"/><line style="stroke:#181818;stroke-width:1.0;" x1="540.207" x2="540.207" y1="487.1094" y2="895.1094"/><text fill="#000000" font-family="sans-serif" font-size="14" font-weight="bold" lengthAdjust="spacing" textLength="116" x="236.207" y="504.6426">Resource Group</text></g><!--cluster Azure Container Registry (ACR)--><g id="cluster_Azure Container Registry (ACR)"><polygon fill="none" points="224.207,742.1094,234.207,732.1094,518.207,732.1094,518.207,853.1094,508.207,863.1094,224.207,863.1094,224.207,742.1094" style="stroke:#181818;stroke-width:1.0;"/><line style="stroke:#181818;stroke-width:1.0;" x1="508.207" x2="518.207" y1="742.1094" y2="732.1094"/><line style="stroke:#181818;stroke-width:1.0;" x1="224.207" x2="508.207" y1="742.1094" y2="742.1094"/><line style="stroke:#181818;stroke-width:1.0;" x1="508.207" x2="508.207" y1="742.1094" y2="863.1094"/><text fill="#000000" font-family="sans-serif" font-size="14" font-weight="bold" lengthAdjust="spacing" textLength="218" x="258.207" y="759.6426">Azure Container Registry (ACR)</text></g><!--cluster Azure App Service\n(Linux Web App)--><g id="cluster_Azure App Service\n(Linux Web App)"><polygon fill="none" points="118.207,544.1094,128.207,534.1094,335.207,534.1094,335.207,656.1094,325.207,666.1094,118.207,666.1094,118.207,544.1094" style="stroke:#181818;stroke-width:1.0;"/><line style="stroke:#181818;stroke-width:1.0;" x1="325.207" x2="335.207" y1="544.1094" y2="534.1094"/><line style="stroke:#181818;stroke-width:1.0;" x1="118.207" x2="325.207" y1="544.1094" y2="544.1094"/><line style="stroke:#181818;stroke-width:1.0;" x1="325.207" x2="325.207" y1="544.1094" y2="666.1094"/><text fill="#000000" font-family="sans-serif" font-size="14" font-weight="bold" lengthAdjust="spacing" textLength="129" x="158.207" y="561.6426">Azure App Service</text><text fill="#000000" font-family="sans-serif" font-size="14" font-weight="bold" lengthAdjust="spacing" textLength="114" x="165.707" y="579.252">(Linux Web App)</text></g><!--entity Terraform\n(main.tf)--><g id="elem_Terraform\n(main.tf)"><rect fill="#F1F1F1" height="65.2188" rx="2.5" ry="2.5" style="stroke:#181818;stroke-width:0.5;" width="103" x="171.707" y="319.1094"/><rect fill="#F1F1F1" height="10" style="stroke:#181818;stroke-width:0.5;" width="15" x="254.707" y="324.1094"/><rect fill="#F1F1F1" height="2" style="stroke:#181818;stroke-width:0.5;" width="4" x="252.707" y="326.1094"/><rect fill="#F1F1F1" height="2" style="stroke:#181818;stroke-width:0.5;" width="4" x="252.707" y="330.1094"/><text fill="#000000" font-family="sans-serif" font-size="14" lengthAdjust="spacing" textLength="63" x="186.707" y="353.6426">Terraform</text><text fill="#000000" font-family="sans-serif" font-size="14" lengthAdjust="spacing" textLength="52" x="186.707" y="371.252">(main.tf)</text></g><!--entity Docker--><g id="elem_Docker"><rect fill="#F1F1F1" height="47.6094" rx="2.5" ry="2.5" style="stroke:#181818;stroke-width:0.5;" width="85" x="309.707" y="327.6094"/><rect fill="#F1F1F1" height="10" style="stroke:#181818;stroke-width:0.5;" width="15" x="374.707" y="332.6094"/><rect fill="#F1F1F1" height="2" style="stroke:#181818;stroke-width:0.5;" width="4" x="372.707" y="334.6094"/><rect fill="#F1F1F1" height="2" style="stroke:#181818;stroke-width:0.5;" width="4" x="372.707" y="338.6094"/><text fill="#000000" font-family="sans-serif" font-size="14" lengthAdjust="spacing" textLength="45" x="324.707" y="362.1426">Docker</text></g><!--entity deploy.ps1--><g id="elem_deploy.ps1"><rect fill="#F1F1F1" height="47.6094" rx="2.5" ry="2.5" style="stroke:#181818;stroke-width:0.5;" width="109" x="226.707" y="210.1094"/><rect fill="#F1F1F1" height="10" style="stroke:#181818;stroke-width:0.5;" width="15" x="315.707" y="215.1094"/><rect fill="#F1F1F1" height="2" style="stroke:#181818;stroke-width:0.5;" width="4" x="313.707" y="217.1094"/><rect fill="#F1F1F1" height="2" style="stroke:#181818;stroke-width:0.5;" width="4" x="313.707" y="221.1094"/><text fill="#000000" font-family="sans-serif" font-size="14" lengthAdjust="spacing" textLength="69" x="241.707" y="244.6426">deploy.ps1</text></g><!--entity Azure PostgreSQL\nFlexible Server--><g id="elem_Azure PostgreSQL\nFlexible Server"><path d="M62.707,788.1094 C62.707,778.1094 131.207,778.1094 131.207,778.1094 C131.207,778.1094 199.707,778.1094 199.707,788.1094 L199.707,832.3281 C199.707,842.3281 131.207,842.3281 131.207,842.3281 C131.207,842.3281 62.707,842.3281 62.707,832.3281 L62.707,788.1094 " fill="#F1F1F1" style="stroke:#181818;stroke-width:0.5;"/><path d="M62.707,788.1094 C62.707,798.1094 131.207,798.1094 131.207,798.1094 C131.207,798.1094 199.707,798.1094 199.707,788.1094 " fill="none" style="stroke:#181818;stroke-width:0.5;"/><text fill="#000000" font-family="sans-serif" font-size="14" lengthAdjust="spacing" textLength="117" x="72.707" y="816.6426">Azure PostgreSQL</text><text fill="#000000" font-family="sans-serif" font-size="14" lengthAdjust="spacing" textLength="94" x="72.707" y="834.252">Flexible Server</text></g><!--entity Docker Image\nrms-api:latest--><g id="elem_Docker Image\nrms-api:latest"><rect fill="#F1F1F1" height="58.2188" rx="2.5" ry="2.5" style="stroke:#181818;stroke-width:0.5;" width="117" x="376.707" y="781.1094"/><polygon fill="#F1F1F1" points="476.707,786.1094,476.707,800.1094,488.707,800.1094,488.707,792.1094,482.707,786.1094,476.707,786.1094" style="stroke:#181818;stroke-width:0.5;"/><line style="stroke:#181818;stroke-width:0.5;" x1="482.707" x2="482.707" y1="786.1094" y2="792.1094"/><line style="stroke:#181818;stroke-width:0.5;" x1="488.707" x2="482.707" y1="792.1094" y2="792.1094"/><text fill="#000000" font-family="sans-serif" font-size="14" lengthAdjust="spacing" textLength="87" x="386.707" y="808.6426">Docker Image</text><text fill="#000000" font-family="sans-serif" font-size="14" lengthAdjust="spacing" textLength="85" x="386.707" y="826.252">rms-api:latest</text></g><!--entity Running Container--><g id="elem_Running Container"><rect fill="#F1F1F1" height="40.6094" rx="2.5" ry="2.5" style="stroke:#181818;stroke-width:0.5;" width="149" x="161.707" y="601.1094"/><polygon fill="#F1F1F1" points="293.707,606.1094,293.707,620.1094,305.707,620.1094,305.707,612.1094,299.707,606.1094,293.707,606.1094" style="stroke:#181818;stroke-width:0.5;"/><line style="stroke:#181818;stroke-width:0.5;" x1="299.707" x2="299.707" y1="606.1094" y2="612.1094"/><line style="stroke:#181818;stroke-width:0.5;" x1="305.707" x2="299.707" y1="612.1094" y2="612.1094"/><text fill="#000000" font-family="sans-serif" font-size="14" lengthAdjust="spacing" textLength="119" x="171.707" y="628.6426">Running Container</text></g><!--entity Developer--><g id="elem_Developer"><ellipse cx="281.207" cy="52.6094" fill="#F1F1F1" rx="8" ry="8" style="stroke:#181818;stroke-width:0.5;"/><path d="M281.207,60.6094 L281.207,87.6094 M268.207,68.6094 L294.207,68.6094 M281.207,87.6094 L268.207,102.6094 M281.207,87.6094 L294.207,102.6094 " fill="none" style="stroke:#181818;stroke-width:0.5;"/><text fill="#000000" font-family="sans-serif" font-size="14" lengthAdjust="spacing" textLength="65" x="248.707" y="118.6426">Developer</text></g><!--link Developer to deploy.ps1--><g id="link_Developer_deploy.ps1"><path d="M281.207,122.4794 C281.207,150.0694 281.207,180.3894 281.207,203.7494 " fill="none" id="Developer-to-deploy.ps1" style="stroke:#181818;stroke-width:1.0;"/><polygon fill="#181818" points="281.207,209.7494,285.207,200.7494,281.207,204.7494,277.207,200.7494,281.207,209.7494" style="stroke:#181818;stroke-width:1.0;"/></g><!--link deploy.ps1 to Terraform\n(main.tf)--><g id="link_deploy.ps1_Terraform\n(main.tf)"><path d="M269.607,258.2094 C260.877,275.5894 251.5093,294.2473 241.8693,313.4473 " fill="none" id="deploy.ps1-to-Terraform\n(main.tf)" style="stroke:#181818;stroke-width:1.0;"/><polygon fill="#181818" points="239.177,318.8094,246.7901,312.5611,241.4206,314.341,239.6406,308.9714,239.177,318.8094" style="stroke:#181818;stroke-width:1.0;"/></g><!--link deploy.ps1 to Docker--><g id="link_deploy.ps1_Docker"><path d="M295.407,258.2094 C307.787,278.3494 322.5139,302.3086 334.8939,322.4386 " fill="none" id="deploy.ps1-to-Docker" style="stroke:#181818;stroke-width:1.0;"/><polygon fill="#181818" points="338.037,327.5494,336.7295,317.7877,335.4177,323.2904,329.9151,321.9786,338.037,327.5494" style="stroke:#181818;stroke-width:1.0;"/></g><!--link Docker to Azure Container Registry (ACR)--><g id="link_Docker_Azure Container Registry (ACR)"><path d="M377.207,375.8094 C387.347,386.8994 397.907,401.0394 403.207,416.1094 C446.277,538.5294 486.157,608.2994 403.207,708.1094 C390.787,723.0594 374.077,702.4894 360.207,716.1094 C356.5045,719.7481 353.4255,723.8995 350.8725,728.3823 C350.2343,729.503 352.2912,725.2675 351.7172,726.4267 " fill="none" id="Docker-to-Azure Container Registry (ACR)" style="stroke:#181818;stroke-width:1.0;"/><polygon fill="#181818" points="349.0549,731.8037,356.6331,725.5132,351.2735,727.3229,349.4637,721.9634,349.0549,731.8037" style="stroke:#181818;stroke-width:1.0;"/></g><!--link Terraform\n(main.tf) to Azure Container Registry (ACR)--><g id="link_Terraform\n(main.tf)_Azure Container Registry (ACR)"><path d="M259.307,384.1694 C269.587,392.4494 281.037,401.0294 292.207,408.1094 C306.817,417.3694 317.277,410.9494 327.207,425.1094 C399.817,528.5694 363.907,582.0194 355.207,708.1094 C354.8295,713.5844 354.3381,719.2144 353.766,724.8816 C353.6229,726.2984 353.4748,727.7175 353.3222,729.1371 C353.2459,729.8469 353.1684,730.5568 353.0899,731.2666 C353.0703,731.4441 353.7147,725.6584 353.6949,725.8358 " fill="none" id="Terraform\n(main.tf)-to-Azure Container Registry (ACR)" style="stroke:#181818;stroke-width:1.0;"/><polygon fill="#181818" points="353.0308,731.799,358.0024,723.297,353.5843,726.8297,350.0516,722.4115,353.0308,731.799" style="stroke:#181818;stroke-width:1.0;"/></g><!--link Terraform\n(main.tf) to Azure App Service\n(Linux Web App)--><g id="link_Terraform\n(main.tf)_Azure App Service\n(Linux Web App)"><path d="M178.287,384.2494 C165.477,395.6194 152.917,409.5294 145.207,425.1094 C140.4445,434.7369 136.8752,451.4656 134.2002,471.2175 C132.8627,481.0934 131.7488,491.7252 130.8211,502.6029 C130.3573,508.0418 129.94,513.5421 129.5646,519.0403 C129.377,521.7894 129.1997,524.5379 129.0324,527.2779 C128.9488,528.6479 128.8676,530.0158 128.7888,531.3805 C128.7494,532.0629 129.0468,526.7539 129.0086,527.4346 " fill="none" id="Terraform\n(main.tf)-to-Azure App Service\n(Linux Web App)" style="stroke:#181818;stroke-width:1.0;"/><polygon fill="#181818" points="128.6724,533.4252,133.1704,524.6634,128.9526,528.433,125.183,524.2152,128.6724,533.4252" style="stroke:#181818;stroke-width:1.0;"/></g><!--link Terraform\n(main.tf) to Azure PostgreSQL\nFlexible Server--><g id="link_Terraform\n(main.tf)_Azure PostgreSQL\nFlexible Server"><path d="M171.597,372.0594 C148.437,383.6894 123.397,400.9794 110.207,425.1094 C46.407,541.8494 92.627,703.8396 117.147,772.4196 " fill="none" id="Terraform\n(main.tf)-to-Azure PostgreSQL\nFlexible Server" style="stroke:#181818;stroke-width:1.0;"/><polygon fill="#181818" points="119.167,778.0694,119.9035,768.2481,117.4837,773.3613,112.3706,770.9414,119.167,778.0694" style="stroke:#181818;stroke-width:1.0;"/></g><!--link Azure App Service\n(Linux Web App) to Azure Container Registry (ACR)--><g id="link_Azure App Service\n(Linux Web App)_Azure Container Registry (ACR)"><path d="M133.3324,666.1291 C136.1127,672.2844 139.942,677.9294 145.207,682.1094 C162.487,695.8394 222.737,684.9794 244.207,690.1094 C264.757,695.0194 267.877,702.3694 288.207,708.1094 C298.827,711.1094 329.887,707.8594 337.207,716.1094 C340.587,719.9169 343.1958,724.1955 345.1719,728.7716 C345.4189,729.3436 345.6561,729.9202 345.8836,730.5012 C345.9974,730.7917 346.1087,731.0833 346.2177,731.3758 C346.2722,731.5221 344.2781,726.029 344.3314,726.1758 " fill="none" id="Azure App Service\n(Linux Web App)-to-Azure Container Registry (ACR)" style="stroke:#181818;stroke-width:1.0;"/><polygon fill="#181818" points="346.3794,731.8155,347.0672,721.9907,344.6728,727.1158,339.5477,724.7213,346.3794,731.8155" style="stroke:#181818;stroke-width:1.0;"/><text fill="#000000" font-family="sans-serif" font-size="13" lengthAdjust="spacing" textLength="61" x="289.207" y="704.6045">Pull Image</text></g><!--link Azure App Service\n(Linux Web App) to Azure PostgreSQL\nFlexible Server--><g id="link_Azure App Service\n(Linux Web App)_Azure PostgreSQL\nFlexible Server"><path d="M127.3883,666.6469 C127.4006,667.1032 127.4129,667.5618 127.4252,668.0224 C127.4499,668.9438 127.4748,669.8737 127.4999,670.8115 C127.6005,674.5631 127.7044,678.4427 127.8108,682.4156 C128.662,714.1994 129.5116,745.9615 130.2066,771.9415 " fill="none" id="Azure App Service\n(Linux Web App)-to-Azure PostgreSQL\nFlexible Server" style="stroke:#181818;stroke-width:1.0;"/><polygon fill="#181818" points="130.367,777.9394,134.1249,768.8356,130.2333,772.9412,126.1278,769.0496,130.367,777.9394" style="stroke:#181818;stroke-width:1.0;"/><text fill="#000000" font-family="sans-serif" font-size="13" lengthAdjust="spacing" textLength="102" x="130.207" y="704.6045">DATABASE_URL</text></g><!--SRC=[bL9DRy8m3BtdLrWzmG6aNJbCwc2R9XM95QPTaAQGkbsqDAcS5C4c_ljI0cmC15rliVq-_5mddKA8Fsj2666bpBf4xI0cyIuT2kVhZ77X3Fds4fMfa1ZJ9aE84YEuWZ7teneZ-680mfILqGr3D4CYdXigvxfJSgdxBkz6noCZ8pwG_XIphOj-PMyYjc5CA5Dd48sb86DDxeBNHit3WeyKhQb983oIgQjTQzyCgmsDTju34gHOIEje3Pruc7Q3w-RZv6Jk5zsxWgUI5pZNLDeUh-H0SOVMHTlfpQb0N5KmHLfAuJ6THEfw1Q-uQEfdHT9QQwcB7sD7p1btVC7jWNrYh2i8fy_9N3yeNCc5FreZ5t2R9gZ3UQ3NkpsEyVSZTCyVvsGkHC5sYMoHL_9ax3ntE_1rxCMSM-0l9ibQ7RFD9Z20IQrK-8d-JNl9f6SUnRFuBfxUlxsa2Vi6]--></g></svg>