<?xml version="1.0" encoding="us-ascii" standalone="no"?><svg xmlns="http://www.w3.org/2000/svg" xmlns:xlink="http://www.w3.org/1999/xlink" contentStyleType="text/css" height="808px" preserveAspectRatio="none" style="width:1533px;height:808px;background:#FFFFFF;" version="1.1" viewBox="0 0 1533 808" width="1533px" zoomAndPan="magnify"><defs/><g><text fill="#000000" font-family="sans-serif" font-size="14" font-weight="bold" lengthAdjust="spacing" textLength="212" x="653.5" y="24.5332">ELLA - Hexagonal Architecture</text><!--cluster Inbound Layer--><g id="cluster_Inbound Layer"><path d="M621.5,146.1094 L722.5,146.1094 A3.75,3.75 0 0 1 725,148.6094 L732,169.7188 L832.5,169.7188 A2.5,2.5 0 0 1 835,172.2188 L835,260.6094 A2.5,2.5 0 0 1 832.5,263.1094 L621.5,263.1094 A2.5,2.5 0 0 1 619,260.6094 L619,148.6094 A2.5,2.5 0 0 1 621.5,146.1094 " fill="none" style="stroke:#000000;stroke-width:1.5;"/><line style="stroke:#000000;stroke-width:1.5;" x1="619" x2="732" y1="169.7188" y2="169.7188"/><text fill="#000000" font-family="sans-serif" font-size="14" font-weight="bold" lengthAdjust="spacing" textLength="100" x="623" y="162.6426">Inbound Layer</text></g><!--cluster Domain Layer\n(domain.py)--><g id="cluster_Domain Layer\n(domain.py)"><path d="M572.5,287.1094 L667.5,287.1094 A3.75,3.75 0 0 1 670,289.6094 L677,328.3281 L898.5,328.3281 A2.5,2.5 0 0 1 901,330.8281 L901,402.6094 A2.5,2.5 0 0 1 898.5,405.1094 L572.5,405.1094 A2.5,2.5 0 0 1 570,402.6094 L570,289.6094 A2.5,2.5 0 0 1 572.5,287.1094 " fill="none" style="stroke:#000000;stroke-width:1.5;"/><line style="stroke:#000000;stroke-width:1.5;" x1="570" x2="677" y1="328.3281" y2="328.3281"/><text fill="#000000" font-family="sans-serif" font-size="14" font-weight="bold" lengthAdjust="spacing" textLength="94" x="574" y="303.6426">Domain Layer</text><text fill="#000000" font-family="sans-serif" font-size="14" font-weight="bold" lengthAdjust="spacing" textLength="81" x="580.5" y="321.252">(domain.py)</text></g><!--cluster Ports\n(ports.py)--><g id="cluster_Ports\n(ports.py)"><path d="M213.5,429.1094 L281.5,429.1094 A3.75,3.75 0 0 1 284,431.6094 L291,470.3281 L1243.5,470.3281 A2.5,2.5 0 0 1 1246,472.8281 L1246,556.6094 A2.5,2.5 0 0 1 1243.5,559.1094 L213.5,559.1094 A2.5,2.5 0 0 1 211,556.6094 L211,431.6094 A2.5,2.5 0 0 1 213.5,429.1094 " fill="none" style="stroke:#000000;stroke-width:1.5;"/><line style="stroke:#000000;stroke-width:1.5;" x1="211" x2="291" y1="470.3281" y2="470.3281"/><text fill="#000000" font-family="sans-serif" font-size="14" font-weight="bold" lengthAdjust="spacing" textLength="37" x="230" y="445.6426">Ports</text><text fill="#000000" font-family="sans-serif" font-size="14" font-weight="bold" lengthAdjust="spacing" textLength="67" x="215" y="463.252">(ports.py)</text></g><!--cluster Outbound Adapters\n(outbound_adapters.py)--><g id="cluster_Outbound Adapters\n(outbound_adapters.py)"><path d="M8.5,583.1094 L177.5,583.1094 A3.75,3.75 0 0 1 180,585.6094 L187,624.3281 L1523.5,624.3281 A2.5,2.5 0 0 1 1526,626.8281 L1526,698.6094 A2.5,2.5 0 0 1 1523.5,701.1094 L8.5,701.1094 A2.5,2.5 0 0 1 6,698.6094 L6,585.6094 A2.5,2.5 0 0 1 8.5,583.1094 " fill="none" style="stroke:#000000;stroke-width:1.5;"/><line style="stroke:#000000;stroke-width:1.5;" x1="6" x2="187" y1="624.3281" y2="624.3281"/><text fill="#000000" font-family="sans-serif" font-size="14" font-weight="bold" lengthAdjust="spacing" textLength="137" x="25.5" y="599.6426">Outbound Adapters</text><text fill="#000000" font-family="sans-serif" font-size="14" font-weight="bold" lengthAdjust="spacing" textLength="168" x="10" y="617.252">(outbound_adapters.py)</text></g><!--entity API--><g id="elem_API"><rect fill="#F1F1F1" height="65.2188" rx="2.5" ry="2.5" style="stroke:#181818;stroke-width:0.5;" width="184" x="635" y="182.1094"/><rect fill="#F1F1F1" height="10" style="stroke:#181818;stroke-width:0.5;" width="15" x="799" y="187.1094"/><rect fill="#F1F1F1" height="2" style="stroke:#181818;stroke-width:0.5;" width="4" x="797" y="189.1094"/><rect fill="#F1F1F1" height="2" style="stroke:#181818;stroke-width:0.5;" width="4" x="797" y="193.1094"/><text fill="#000000" font-family="sans-serif" font-size="14" lengthAdjust="spacing" textLength="49" x="650" y="216.6426">FastAPI</text><text fill="#000000" font-family="sans-serif" font-size="14" lengthAdjust="spacing" textLength="144" x="650" y="234.252">(inbound_adapters.py)</text></g><!--entity ResearchService--><g id="elem_ResearchService"><rect fill="#F1F1F1" height="47.6094" rx="2.5" ry="2.5" style="stroke:#181818;stroke-width:0.5;" width="148" x="737" y="341.1094"/><rect fill="#F1F1F1" height="10" style="stroke:#181818;stroke-width:0.5;" width="15" x="865" y="346.1094"/><rect fill="#F1F1F1" height="2" style="stroke:#181818;stroke-width:0.5;" width="4" x="863" y="348.1094"/><rect fill="#F1F1F1" height="2" style="stroke:#181818;stroke-width:0.5;" width="4" x="863" y="352.1094"/><text fill="#000000" font-family="sans-serif" font-size="14" lengthAdjust="spacing" textLength="108" x="752" y="375.6426">ResearchService</text></g><!--entity AuthService--><g id="elem_AuthService"><rect fill="#F1F1F1" height="47.6094" rx="2.5" ry="2.5" style="stroke:#181818;stroke-width:0.5;" width="116" x="586" y="341.1094"/><rect fill="#F1F1F1" height="10" style="stroke:#181818;stroke-width:0.5;" width="15" x="682" y="346.1094"/><rect fill="#F1F1F1" height="2" style="stroke:#181818;stroke-width:0.5;" width="4" x="680" y="348.1094"/><rect fill="#F1F1F1" height="2" style="stroke:#181818;stroke-width:0.5;" width="4" x="680" y="352.1094"/><text fill="#000000" font-family="sans-serif" font-size="14" lengthAdjust="spacing" textLength="76" x="601" y="375.6426">AuthService</text></g><!--entity ProjectDatabasePort--><g id="elem_ProjectDatabasePort"><ellipse cx="1157" cy="513.1094" fill="#F1F1F1" rx="8" ry="8" style="stroke:#181818;stroke-width:0.5;"/><text fill="#000000" font-family="sans-serif" font-size="14" lengthAdjust="spacing" textLength="131" x="1091.5" y="544.6426">ProjectDatabasePort</text></g><!--entity UserRepositoryPort--><g id="elem_UserRepositoryPort"><ellipse cx="465" cy="513.1094" fill="#F1F1F1" rx="8" ry="8" style="stroke:#181818;stroke-width:0.5;"/><text fill="#000000" font-family="sans-serif" font-size="14" lengthAdjust="spacing" textLength="123" x="403.5" y="544.6426">UserRepositoryPort</text></g><!--entity TokenProviderPort--><g id="elem_TokenProviderPort"><ellipse cx="294" cy="513.1094" fill="#F1F1F1" rx="8" ry="8" style="stroke:#181818;stroke-width:0.5;"/><text fill="#000000" font-family="sans-serif" font-size="14" lengthAdjust="spacing" textLength="119" x="234.5" y="544.6426">TokenProviderPort</text></g><!--entity PasswordHasherPort--><g id="elem_PasswordHasherPort"><ellipse cx="643" cy="513.1094" fill="#F1F1F1" rx="8" ry="8" style="stroke:#181818;stroke-width:0.5;"/><text fill="#000000" font-family="sans-serif" font-size="14" lengthAdjust="spacing" textLength="132" x="577" y="544.6426">PasswordHasherPort</text></g><!--entity MessageBrokerPort--><g id="elem_MessageBrokerPort"><ellipse cx="979" cy="513.1094" fill="#F1F1F1" rx="8" ry="8" style="stroke:#181818;stroke-width:0.5;"/><text fill="#000000" font-family="sans-serif" font-size="14" lengthAdjust="spacing" textLength="125" x="916.5" y="544.6426">MessageBrokerPort</text></g><!--entity ResearchApiPort--><g id="elem_ResearchApiPort"><ellipse cx="813" cy="513.1094" fill="#F1F1F1" rx="8" ry="8" style="stroke:#181818;stroke-width:0.5;"/><text fill="#000000" font-family="sans-serif" font-size="14" lengthAdjust="spacing" textLength="107" x="759.5" y="544.6426">ResearchApiPort</text></g><!--entity SQLiteProjectAdapter--><g id="elem_SQLiteProjectAdapter"><rect fill="#F1F1F1" height="47.6094" rx="2.5" ry="2.5" style="stroke:#181818;stroke-width:0.5;" width="177" x="1107.5" y="637.1094"/><rect fill="#F1F1F1" height="10" style="stroke:#181818;stroke-width:0.5;" width="15" x="1264.5" y="642.1094"/><rect fill="#F1F1F1" height="2" style="stroke:#181818;stroke-width:0.5;" width="4" x="1262.5" y="644.1094"/><rect fill="#F1F1F1" height="2" style="stroke:#181818;stroke-width:0.5;" width="4" x="1262.5" y="648.1094"/><text fill="#000000" font-family="sans-serif" font-size="14" lengthAdjust="spacing" textLength="137" x="1122.5" y="671.6426">SQLiteProjectAdapter</text></g><!--entity PostgresProjectAdapter--><g id="elem_PostgresProjectAdapter"><rect fill="#F1F1F1" height="47.6094" rx="2.5" ry="2.5" style="stroke:#181818;stroke-width:0.5;" width="190" x="1320" y="637.1094"/><rect fill="#F1F1F1" height="10" style="stroke:#181818;stroke-width:0.5;" width="15" x="1490" y="642.1094"/><rect fill="#F1F1F1" height="2" style="stroke:#181818;stroke-width:0.5;" width="4" x="1488" y="644.1094"/><rect fill="#F1F1F1" height="2" style="stroke:#181818;stroke-width:0.5;" width="4" x="1488" y="648.1094"/><text fill="#000000" font-family="sans-serif" font-size="14" lengthAdjust="spacing" textLength="150" x="1335" y="671.6426">PostgresProjectAdapter</text></g><!--entity SQLiteUserAdapter--><g id="elem_SQLiteUserAdapter"><rect fill="#F1F1F1" height="47.6094" rx="2.5" ry="2.5" style="stroke:#181818;stroke-width:0.5;" width="162" x="175" y="637.1094"/><rect fill="#F1F1F1" height="10" style="stroke:#181818;stroke-width:0.5;" width="15" x="317" y="642.1094"/><rect fill="#F1F1F1" height="2" style="stroke:#181818;stroke-width:0.5;" width="4" x="315" y="644.1094"/><rect fill="#F1F1F1" height="2" style="stroke:#181818;stroke-width:0.5;" width="4" x="315" y="648.1094"/><text fill="#000000" font-family="sans-serif" font-size="14" lengthAdjust="spacing" textLength="122" x="190" y="671.6426">SQLiteUserAdapter</text></g><!--entity PostgresUserAdapter--><g id="elem_PostgresUserAdapter"><rect fill="#F1F1F1" height="47.6094" rx="2.5" ry="2.5" style="stroke:#181818;stroke-width:0.5;" width="175" x="372.5" y="637.1094"/><rect fill="#F1F1F1" height="10" style="stroke:#181818;stroke-width:0.5;" width="15" x="527.5" y="642.1094"/><rect fill="#F1F1F1" height="2" style="stroke:#181818;stroke-width:0.5;" width="4" x="525.5" y="644.1094"/><rect fill="#F1F1F1" height="2" style="stroke:#181818;stroke-width:0.5;" width="4" x="525.5" y="648.1094"/><text fill="#000000" font-family="sans-serif" font-size="14" lengthAdjust="spacing" textLength="135" x="387.5" y="671.6426">PostgresUserAdapter</text></g><!--entity JWTAdapter--><g id="elem_JWTAdapter"><rect fill="#F1F1F1" height="47.6094" rx="2.5" ry="2.5" style="stroke:#181818;stroke-width:0.5;" width="118" x="22" y="637.1094"/><rect fill="#F1F1F1" height="10" style="stroke:#181818;stroke-width:0.5;" width="15" x="120" y="642.1094"/><rect fill="#F1F1F1" height="2" style="stroke:#181818;stroke-width:0.5;" width="4" x="118" y="644.1094"/><rect fill="#F1F1F1" height="2" style="stroke:#181818;stroke-width:0.5;" width="4" x="118" y="648.1094"/><text fill="#000000" font-family="sans-serif" font-size="14" lengthAdjust="spacing" textLength="78" x="37" y="671.6426">JWTAdapter</text></g><!--entity BcryptHasher--><g id="elem_BcryptHasher"><rect fill="#F1F1F1" height="47.6094" rx="2.5" ry="2.5" style="stroke:#181818;stroke-width:0.5;" width="125" x="582.5" y="637.1094"/><rect fill="#F1F1F1" height="10" style="stroke:#181818;stroke-width:0.5;" width="15" x="687.5" y="642.1094"/><rect fill="#F1F1F1" height="2" style="stroke:#181818;stroke-width:0.5;" width="4" x="685.5" y="644.1094"/><rect fill="#F1F1F1" height="2" style="stroke:#181818;stroke-width:0.5;" width="4" x="685.5" y="648.1094"/><text fill="#000000" font-family="sans-serif" font-size="14" lengthAdjust="spacing" textLength="85" x="597.5" y="671.6426">BcryptHasher</text></g><!--entity ScholarAdapter--><g id="elem_ScholarAdapter"><rect fill="#F1F1F1" height="47.6094" rx="2.5" ry="2.5" style="stroke:#181818;stroke-width:0.5;" width="138" x="743" y="637.1094"/><rect fill="#F1F1F1" height="10" style="stroke:#181818;stroke-width:0.5;" width="15" x="861" y="642.1094"/><rect fill="#F1F1F1" height="2" style="stroke:#181818;stroke-width:0.5;" width="4" x="859" y="644.1094"/><rect fill="#F1F1F1" height="2" style="stroke:#181818;stroke-width:0.5;" width="4" x="859" y="648.1094"/><text fill="#000000" font-family="sans-serif" font-size="14" lengthAdjust="spacing" textLength="98" x="758" y="671.6426">ScholarAdapter</text></g><!--entity LogBrokerAdapter--><g id="elem_LogBrokerAdapter"><rect fill="#F1F1F1" height="47.6094" rx="2.5" ry="2.5" style="stroke:#181818;stroke-width:0.5;" width="156" x="916" y="637.1094"/><rect fill="#F1F1F1" height="10" style="stroke:#181818;stroke-width:0.5;" width="15" x="1052" y="642.1094"/><rect fill="#F1F1F1" height="2" style="stroke:#181818;stroke-width:0.5;" width="4" x="1050" y="644.1094"/><rect fill="#F1F1F1" height="2" style="stroke:#181818;stroke-width:0.5;" width="4" x="1050" y="648.1094"/><text fill="#000000" font-family="sans-serif" font-size="14" lengthAdjust="spacing" textLength="116" x="931" y="671.6426">LogBrokerAdapter</text></g><!--entity User--><g id="elem_User"><ellipse cx="727" cy="52.6094" fill="#F1F1F1" rx="8" ry="8" style="stroke:#181818;stroke-width:0.5;"/><path d="M727,60.6094 L727,87.6094 M714,68.6094 L740,68.6094 M727,87.6094 L714,102.6094 M727,87.6094 L740,102.6094 " fill="none" style="stroke:#181818;stroke-width:0.5;"/><text fill="#000000" font-family="sans-serif" font-size="14" lengthAdjust="spacing" textLength="29" x="712.5" y="118.6426">User</text></g><!--entity SQLite (Local)--><g id="elem_SQLite (Local)"><path d="M680.5,755.1094 C680.5,745.1094 736,745.1094 736,745.1094 C736,745.1094 791.5,745.1094 791.5,755.1094 L791.5,781.7188 C791.5,791.7188 736,791.7188 736,791.7188 C736,791.7188 680.5,791.7188 680.5,781.7188 L680.5,755.1094 " fill="#F1F1F1" style="stroke:#181818;stroke-width:0.5;"/><path d="M680.5,755.1094 C680.5,765.1094 736,765.1094 736,765.1094 C736,765.1094 791.5,765.1094 791.5,755.1094 " fill="none" style="stroke:#181818;stroke-width:0.5;"/><text fill="#000000" font-family="sans-serif" font-size="14" lengthAdjust="spacing" textLength="91" x="690.5" y="783.6426">SQLite (Local)</text></g><!--entity PostgreSQL (Cloud)--><g id="elem_PostgreSQL (Cloud)"><path d="M846,755.1094 C846,745.1094 920,745.1094 920,745.1094 C920,745.1094 994,745.1094 994,755.1094 L994,781.7188 C994,791.7188 920,791.7188 920,791.7188 C920,791.7188 846,791.7188 846,781.7188 L846,755.1094 " fill="#F1F1F1" style="stroke:#181818;stroke-width:0.5;"/><path d="M846,755.1094 C846,765.1094 920,765.1094 920,765.1094 C920,765.1094 994,765.1094 994,755.1094 " fill="none" style="stroke:#181818;stroke-width:0.5;"/><text fill="#000000" font-family="sans-serif" font-size="14" lengthAdjust="spacing" textLength="128" x="856" y="783.6426">PostgreSQL (Cloud)</text></g><!--link User to API--><g id="link_User_API"><path d="M727,122.2594 C727,141.2094 727,157.8394 727,175.8394 " fill="none" id="User-to-API" style="stroke:#181818;stroke-width:1.0;"/><polygon fill="#181818" points="727,181.8394,731,172.8394,727,176.8394,723,172.8394,727,181.8394" style="stroke:#181818;stroke-width:1.0;"/></g><!--link API to ResearchService--><g id="link_API_ResearchService"><path d="M745.02,247.4694 C760.93,275.5894 780.7849,310.6975 794.9949,335.8075 " fill="none" id="API-to-ResearchService" style="stroke:#181818;stroke-width:1.0;"/><polygon fill="#181818" points="797.95,341.0294,796.9986,331.2266,795.4874,336.6779,790.0362,335.1667,797.95,341.0294" style="stroke:#181818;stroke-width:1.0;"/></g><!--link API to AuthService--><g id="link_API_AuthService"><path d="M709.19,247.4694 C693.48,275.5894 673.8682,310.6824 659.8282,335.7924 " fill="none" id="API-to-AuthService" style="stroke:#181818;stroke-width:1.0;"/><polygon fill="#181818" points="656.9,341.0294,664.7836,335.1261,659.3402,336.6652,657.801,331.2218,656.9,341.0294" style="stroke:#181818;stroke-width:1.0;"/></g><!--link ResearchService to ProjectDatabasePort--><g id="link_ResearchService_ProjectDatabasePort"><path d="M885.25,370.7594 C938.58,376.6994 1010.69,390.2494 1067,421.1094 C1105.97,442.4694 1135.5455,481.0796 1148.1255,499.0996 " fill="none" id="ResearchService-to-ProjectDatabasePort" style="stroke:#181818;stroke-width:1.0;"/><polygon fill="#181818" points="1151.56,504.0194,1149.688,494.3501,1148.6979,499.9196,1143.1284,498.9294,1151.56,504.0194" style="stroke:#181818;stroke-width:1.0;"/></g><!--link ResearchService to MessageBrokerPort--><g id="link_ResearchService_MessageBrokerPort"><path d="M848.48,389.1794 C862.61,398.4694 878.5,409.6894 892,421.1094 C924.71,448.7794 954.4683,482.8273 968.4283,499.4273 " fill="none" id="ResearchService-to-MessageBrokerPort" style="stroke:#181818;stroke-width:1.0;"/><polygon fill="#181818" points="972.29,504.0194,969.5587,494.5568,969.0719,500.1927,963.436,499.7058,972.29,504.0194" style="stroke:#181818;stroke-width:1.0;"/></g><!--link ResearchService to ResearchApiPort--><g id="link_ResearchService_ResearchApiPort"><path d="M811.32,389.2394 C811.77,422.5294 812.5069,476.3199 812.8069,497.9899 " fill="none" id="ResearchService-to-ResearchApiPort" style="stroke:#181818;stroke-width:1.0;"/><polygon fill="#181818" points="812.89,503.9894,816.765,494.9349,812.8208,498.9899,808.7658,495.0456,812.89,503.9894" style="stroke:#181818;stroke-width:1.0;"/></g><!--link AuthService to UserRepositoryPort--><g id="link_AuthService_UserRepositoryPort"><path d="M599.82,389.2894 C584.11,398.3594 566.69,409.3894 552,421.1094 C518.51,447.8294 489.0844,482.3234 475.3644,499.2034 " fill="none" id="AuthService-to-UserRepositoryPort" style="stroke:#181818;stroke-width:1.0;"/><polygon fill="#181818" points="471.58,503.8594,480.3606,499.3983,474.7337,499.9794,474.1526,494.3524,471.58,503.8594" style="stroke:#181818;stroke-width:1.0;"/></g><!--link AuthService to TokenProviderPort--><g id="link_AuthService_TokenProviderPort"><path d="M585.95,368.1094 C529.77,372.2694 443.82,384.6794 379,421.1094 C341.31,442.2994 313.8753,480.8728 302.2553,498.9428 " fill="none" id="AuthService-to-TokenProviderPort" style="stroke:#181818;stroke-width:1.0;"/><polygon fill="#181818" points="299.01,503.9894,307.2423,498.583,301.7144,499.7839,300.5135,494.2559,299.01,503.9894" style="stroke:#181818;stroke-width:1.0;"/></g><!--link AuthService to PasswordHasherPort--><g id="link_AuthService_PasswordHasherPort"><path d="M643.84,389.2394 C643.61,422.5294 643.2388,476.3195 643.0988,497.9895 " fill="none" id="AuthService-to-PasswordHasherPort" style="stroke:#181818;stroke-width:1.0;"/><polygon fill="#181818" points="643.06,503.9894,647.1181,495.0154,643.0923,498.9895,639.1182,494.9637,643.06,503.9894" style="stroke:#181818;stroke-width:1.0;"/></g><!--reverse link ProjectDatabasePort to SQLiteProjectAdapter--><g id="link_ProjectDatabasePort_SQLiteProjectAdapter"><path d="M1163.8589,539.7687 C1169.6789,561.5387 1180.93,603.6894 1189.81,636.9194 " fill="none" id="ProjectDatabasePort-backto-SQLiteProjectAdapter" style="stroke:#181818;stroke-width:1.0;stroke-dasharray:7.0,7.0;"/><polygon fill="none" points="1159.21,522.3794,1158.0624,541.3183,1169.6553,538.2191,1159.21,522.3794" style="stroke:#181818;stroke-width:1.0;"/></g><!--reverse link ProjectDatabasePort to PostgresProjectAdapter--><g id="link_ProjectDatabasePort_PostgresProjectAdapter"><path d="M1183.275,522.7553 C1206.765,530.5453 1253.46,547.2194 1302,575.1094 C1333.29,593.0894 1365.9,618.4494 1388,636.7794 " fill="none" id="ProjectDatabasePort-backto-PostgresProjectAdapter" style="stroke:#181818;stroke-width:1.0;stroke-dasharray:7.0,7.0;"/><polygon fill="none" points="1166.19,517.0894,1181.3864,528.4503,1185.1636,517.0603,1166.19,517.0894" style="stroke:#181818;stroke-width:1.0;"/></g><!--reverse link UserRepositoryPort to SQLiteUserAdapter--><g id="link_UserRepositoryPort_SQLiteUserAdapter"><path d="M441.1772,531.1417 C425.8772,541.9917 408.56,553.2994 379,567.1094 C368.81,571.8694 364.78,569.5694 355,575.1094 C325.44,591.8594 296.53,618.1694 277.66,637.0794 " fill="none" id="UserRepositoryPort-backto-SQLiteUserAdapter" style="stroke:#181818;stroke-width:1.0;stroke-dasharray:7.0,7.0;"/><polygon fill="none" points="455.86,520.7294,437.7065,526.2474,444.648,536.0359,455.86,520.7294" style="stroke:#181818;stroke-width:1.0;"/></g><!--reverse link UserRepositoryPort to PostgresUserAdapter--><g id="link_UserRepositoryPort_PostgresUserAdapter"><path d="M464.1002,540.3687 C463.3502,562.1387 461.93,603.6894 460.79,636.9194 " fill="none" id="UserRepositoryPort-backto-PostgresUserAdapter" style="stroke:#181818;stroke-width:1.0;stroke-dasharray:7.0,7.0;"/><polygon fill="none" points="464.72,522.3794,458.1038,540.1621,470.0967,540.5753,464.72,522.3794" style="stroke:#181818;stroke-width:1.0;"/></g><!--reverse link TokenProviderPort to JWTAdapter--><g id="link_TokenProviderPort_JWTAdapter"><path d="M267.5024,522.0156 C244.4824,528.9856 200.71,544.0894 158,575.1094 C134.16,592.4294 112.15,618.1294 97.82,636.7394 " fill="none" id="TokenProviderPort-backto-JWTAdapter" style="stroke:#181818;stroke-width:1.0;stroke-dasharray:7.0,7.0;"/><polygon fill="none" points="284.73,516.7994,265.7636,516.273,269.2411,527.7581,284.73,516.7994" style="stroke:#181818;stroke-width:1.0;"/></g><!--reverse link PasswordHasherPort to BcryptHasher--><g id="link_PasswordHasherPort_BcryptHasher"><path d="M643.358,540.3777 C643.658,562.1477 644.23,603.6894 644.68,636.9194 " fill="none" id="PasswordHasherPort-backto-BcryptHasher" style="stroke:#181818;stroke-width:1.0;stroke-dasharray:7.0,7.0;"/><polygon fill="none" points="643.11,522.3794,637.3586,540.4603,649.3575,540.295,643.11,522.3794" style="stroke:#181818;stroke-width:1.0;"/></g><!--reverse link ResearchApiPort to ScholarAdapter--><g id="link_ResearchApiPort_ScholarAdapter"><path d="M812.816,540.3789 C812.666,562.1489 812.39,603.6894 812.16,636.9194 " fill="none" id="ResearchApiPort-backto-ScholarAdapter" style="stroke:#181818;stroke-width:1.0;stroke-dasharray:7.0,7.0;"/><polygon fill="none" points="812.94,522.3794,806.8161,540.3376,818.8158,540.4203,812.94,522.3794" style="stroke:#181818;stroke-width:1.0;"/></g><!--reverse link MessageBrokerPort to LogBrokerAdapter--><g id="link_MessageBrokerPort_LogBrokerAdapter"><path d="M981.6924,540.2848 C983.9324,562.0548 988.2,603.6894 991.62,636.9194 " fill="none" id="MessageBrokerPort-backto-LogBrokerAdapter" style="stroke:#181818;stroke-width:1.0;stroke-dasharray:7.0,7.0;"/><polygon fill="none" points="979.85,522.3794,975.7239,540.899,987.6609,539.6707,979.85,522.3794" style="stroke:#181818;stroke-width:1.0;"/></g><!--link SQLiteProjectAdapter to SQLite (Local)--><g id="link_SQLiteProjectAdapter_SQLite (Local)"><path d="M1151.39,685.2294 C1132.84,693.9494 1110.81,703.1894 1090,709.1094 C977.37,741.1594 944.05,723.3094 829,745.1094 C816.92,747.3994 809.8982,748.8553 797.7082,751.7453 " fill="none" id="SQLiteProjectAdapter-to-SQLite (Local)" style="stroke:#181818;stroke-width:1.0;"/><polygon fill="#181818" points="791.87,753.1294,801.55,754.9453,796.7351,751.9759,799.7045,747.1611,791.87,753.1294" style="stroke:#181818;stroke-width:1.0;"/></g><!--link SQLiteUserAdapter to SQLite (Local)--><g id="link_SQLiteUserAdapter_SQLite (Local)"><path d="M297.79,685.2694 C315.05,693.9494 335.54,703.1394 355,709.1094 C467.44,743.6194 599.0779,757.8566 674.3179,763.6766 " fill="none" id="SQLiteUserAdapter-to-SQLite (Local)" style="stroke:#181818;stroke-width:1.0;"/><polygon fill="#181818" points="680.3,764.1394,671.6353,759.4572,675.3149,763.7538,671.0183,767.4334,680.3,764.1394" style="stroke:#181818;stroke-width:1.0;"/></g><!--link PostgresProjectAdapter to PostgreSQL (Cloud)--><g id="link_PostgresProjectAdapter_PostgreSQL (Cloud)"><path d="M1366.97,685.1094 C1347.22,693.7594 1323.89,702.9794 1302,709.1094 C1197.34,738.4194 1078.142,753.4807 1000.322,761.0207 " fill="none" id="PostgresProjectAdapter-to-PostgreSQL (Cloud)" style="stroke:#181818;stroke-width:1.0;"/><polygon fill="#181818" points="994.35,761.5994,1003.6938,764.7128,999.3267,761.1172,1002.9223,756.7501,994.35,761.5994" style="stroke:#181818;stroke-width:1.0;"/></g><!--link PostgresUserAdapter to PostgreSQL (Cloud)--><g id="link_PostgresUserAdapter_PostgreSQL (Cloud)"><path d="M504.2,685.1394 C522.57,693.8494 544.39,703.0994 565,709.1094 C670.24,739.7894 701.02,726.2094 809,745.1094 C820.91,747.1894 827.6227,748.4221 839.8827,750.8321 " fill="none" id="PostgresUserAdapter-to-PostgreSQL (Cloud)" style="stroke:#181818;stroke-width:1.0;"/><polygon fill="#181818" points="845.77,751.9894,837.7105,746.3285,840.8639,751.025,836.1675,754.1783,845.77,751.9894" style="stroke:#181818;stroke-width:1.0;"/></g><!--SRC=[VPBTRjGm48Nl_HIZN6qlTfy08QKjgAs2I7yGDqXewantJLDFP3k55V3kE75AdTZfpQwIy-LuvlWuvLg23rLLmXOkw1VkMMCBfP47vKYwtf0GA1qR-6B92D6XVCGzGN6fxxdN3LHu95F0Rm4W-QbZJTf1yH6jA-lBRtgZ0lST6-mS6RlhZYS5e0KlYx-HuJa_eTB1pt_NZ8-1NfZVa2Nq4zwIULQIYhbQzkvLYG-esJZhdRlX_zLOQJ_M0qg2sl0Fl_CvEhn7ImC_quS4RgXZgtmUnqI-uqVItkDPDMGIjKPhVx9fBj0UCl8dijPFUMgyIQg-R5nsQjJYjJxtBjn4EINiL-JftIBrUOwtrvM_usdfwUCPKBDrUqFs3IHu3C6yPR2cNtszoxq-bUROkH3K_3Hvu1QpLXNlGtOlee-ecIuIYZ0cR2gMs9uKaJADw07OdBNSDruLmxomtRuVEohyp_YmgDt_zr7XX5X08v3hLOvBEv2ZbbqGqVaZaAdf4achkYGoTHMPFU3TdzqktwHLUgLMwTYnULoXDJ9NjsJJW4RDIpSDoAo5Yz2doUPrJAulK4apHIwkCVIafydkUKpa8mrmhk6PfDRXVm00]--></g></svg>